<svg xmlns="http://www.w3.org/2000/svg" width="18.107" height="17.461" viewBox="0 0 18.107 17.461">
    <defs>
        <style>
            .cls-1{fill:#b8b8b8}
        </style>
    </defs>
    <g id="_001-man" data-name="001-man" transform="translate(4)">
        <path id="Path_396" d="M11.294 20.262c-.447-.071-.457-1.3-.457-1.3a6.256 6.256 0 0 0 1.6-3.048c.77 0 1.245-1.858.475-2.512.032-.688.989-5.4-3.857-5.4S5.165 12.714 5.2 13.4c-.77.654-.294 2.512.475 2.512a6.255 6.255 0 0 0 1.6 3.048s-.01 1.229-.457 1.3C5.375 20.491 0 22.861 0 25.461h18.108c0-2.6-5.375-4.97-6.814-5.199z" class="cls-1" data-name="Path 396" transform="translate(-4 -8)"/>
    </g>
</svg>
