<svg xmlns="http://www.w3.org/2000/svg" id="_002-woman" width="17.461" height="17.461" data-name="002-woman" viewBox="0 0 17.461 17.461">
    <defs>
        <style>
            .cls-1{fill:#b8b8b8}
        </style>
    </defs>
    <g id="Group_268" data-name="Group 268">
        <path id="Path_397" d="M14.364 13.128l-2.787-.7-.161-.644a9.232 9.232 0 0 0 2.956-.925.364.364 0 0 0 .176-.29.37.37 0 0 0-.139-.311c-.013-.01-1.313-1.084-1.313-4.8 0-3.138-.734-4.729-2.183-4.729H10.7A2.328 2.328 0 0 0 8.73 0C7.363 0 4.365 1.374 4.365 5.457c0 3.721-1.3 4.794-1.31 4.8a.363.363 0 0 0 .031.6 9.031 9.031 0 0 0 2.958.928l-.161.642-2.787.7A4.084 4.084 0 0 0 0 17.1a.364.364 0 0 0 .364.364H17.1a.365.365 0 0 0 .364-.365 4.083 4.083 0 0 0-3.1-3.971z" class="cls-1" data-name="Path 397"/>
    </g>
</svg>
