

<svg version="1.1" id="Layer_1" xmlns="http://www.w3.org/2000/svg" xmlns:xlink="http://www.w3.org/1999/xlink" x="0px" y="0px"
	 viewBox="0 0 470.3 81.9" style="enable-background:new 0 0 470.3 81.9;" xml:space="preserve">
<style type="text/css">
	.st0{fill:#384F63;}
	.st1{fill:#00B9AD;}
</style>
<path class="st0" d="M325,56.1l-1.4,1c-2,1.3-4.5,2-6.7,2c-1.9,0-3.3-0.5-4.3-1.7c-1-1.1-1.6-2.8-1.6-5V33.9h13.8V25H311V12.3h-10.4
	V25h-7h-6.2h-4.3v42.9h10.4V33.9h7v19c0,5.2,1.4,9.2,4.3,12c2.8,2.7,6.7,4.1,11.5,4.1c3.3,0,7.5-1.3,11.1-3.4l1.1-0.6
	C326.7,62.5,325.5,59.5,325,56.1z"/>
<path class="st1" d="M6.1,46.6C2.7,46.6,0,54.9,0,67.9h12.2C12.2,54.9,9.5,46.6,6.1,46.6"/>
<path class="st1" d="M55.4,0c-8.6,0-15.4,28.8-15.4,67.9h30.9C70.8,28.8,63.8,0,55.4,0"/>
<path class="st1" d="M26.1,23.9c-5.4,0-9.7,18.1-9.7,43.9h19.4C35.8,42,31.4,23.9,26.1,23.9"/>
<path class="st0" d="M125.8,28.5c-3.7-3.1-8.4-4.7-14-4.7c-5.7,0-10.8,2.2-15,6.4c-4.2,4.2-6.3,9.7-6.3,16.2c0,6.6,2.1,12,6.3,16.2
	c4.2,4.2,9.2,6.4,15,6.4c5.6,0,10.3-1.6,14-4.7v3.5h10.4V25h-10.4V28.5z M122,36.9c2.5,2.5,3.8,5.6,3.8,9.5c0,3.9-1.2,7-3.8,9.5
	c-2.6,2.5-5.4,3.7-8.8,3.7c-3.6,0-6.6-1.2-9-3.6c-2.4-2.4-3.5-5.6-3.5-9.6c0-4,1.2-7.2,3.5-9.6c2.4-2.4,5.3-3.6,9-3.6
	C116.6,33.3,119.5,34.5,122,36.9"/>
<path class="st0" d="M194.6,23.8c-6.4,0-11.5,2.3-15.2,6.8c-1.3-2-3.1-3.6-5.2-4.7c-2.5-1.4-5.4-2.1-8.5-2.1c-5,0-9.1,1.5-12.3,4.4
	V25H143v42.9h10.4V46.6c0-4.3,0.9-7.6,2.7-9.8c1.8-2.2,4.2-3.2,7.3-3.2c2.5,0,4.4,0.8,6,2.4c1.6,1.6,2.4,3.8,2.4,6.5v25.3h10.4V46.6
	c0-4.3,0.9-7.6,2.8-9.8c1.8-2.2,4.2-3.2,7.4-3.2c2.5,0,4.4,0.8,6,2.4c1.6,1.6,2.4,3.8,2.4,6.5v25.3h10.3V40.8c0-5-1.6-9.1-4.8-12.2
	C203.1,25.4,199.2,23.8,194.6,23.8"/>
<path class="st0" d="M240.5,23.8c-5.6,0-10.3,1.6-14,4.7V25h-10.4v56.9h10.4V64.3c3.7,3.1,8.4,4.7,14,4.7c5.8,0,10.8-2.1,15-6.4
	c4.2-4.2,6.3-9.7,6.3-16.2c0-6.5-2.1-12-6.3-16.2C251.3,26,246.2,23.8,240.5,23.8 M251.6,46.4c0,4-1.2,7.2-3.5,9.6
	c-2.4,2.4-5.3,3.6-9,3.6c-3.4,0-6.3-1.2-8.8-3.7c-2.5-2.5-3.8-5.6-3.8-9.5c0-3.9,1.2-7,3.8-9.5c2.6-2.5,5.4-3.7,8.8-3.7
	c3.6,0,6.6,1.2,9,3.6C250.4,39.2,251.6,42.5,251.6,46.4"/>
<rect x="265.2" y="7.3" class="st0" width="10.4" height="60.6"/>
<path class="st0" d="M360.1,44.9c0,4.8-1,8.4-3,10.8c-2,2.4-4.7,3.6-8.2,3.6c-2.7,0-4.8-0.9-6.5-2.8c-1.6-1.9-2.5-4.4-2.5-7.6V25
	h-10.4v25.7c0,5.4,1.6,9.9,4.8,13.2c3.2,3.4,7.4,5.1,12.6,5.1c5.3,0,9.8-1.6,13.2-4.8v3.7h10.4V25h-10.4V44.9z"/>
<path class="st0" d="M410.5,28.5c-3.7-3.1-8.4-4.7-14-4.7c-5.7,0-10.8,2.2-15,6.4c-4.2,4.2-6.3,9.7-6.3,16.2c0,6.5,2.1,12,6.3,16.2
	c4.2,4.2,9.2,6.4,15,6.4c5.5,0,10.2-1.6,14-4.7v3.5H421V7.3h-10.5V28.5z M406.7,36.9c2.5,2.5,3.8,5.6,3.8,9.5c0,4-1.2,7.1-3.8,9.5
	c-2.6,2.4-5.4,3.6-8.8,3.6c-3.6,0-6.5-1.2-8.9-3.6c-2.4-2.4-3.5-5.6-3.5-9.6c0-3.9,1.2-7.1,3.5-9.5c2.4-2.4,5.3-3.6,8.9-3.6
	C401.3,33.3,404.1,34.5,406.7,36.9"/>
<path class="st0" d="M463.7,30.3c-4.4-4.1-9.8-6.3-16.2-6.3c-6.4,0-11.9,2.1-16.3,6.2c-4.4,4.2-6.7,9.6-6.7,16.1
	c0,6.5,2.3,12,6.7,16.1c4.4,4.2,9.9,6.3,16.3,6.3c6.3,0,11.8-2.1,16.2-6.3c4.4-4.2,6.7-9.6,6.7-16.1
	C470.3,39.9,468.1,34.5,463.7,30.3 M460.2,46.4c0,3.9-1.2,7-3.8,9.5c-2.6,2.5-5.5,3.7-8.9,3.7c-3.5,0-6.5-1.2-9-3.7
	c-2.5-2.5-3.7-5.6-3.7-9.5c0-3.9,1.2-7,3.7-9.5c2.5-2.5,5.5-3.7,9-3.7c3.4,0,6.3,1.2,8.9,3.7C458.9,39.4,460.2,42.5,460.2,46.4"/>
<path class="st0" d="M288.4,19.8c1.8,0,3.4-0.6,4.6-1.7c1.2-1.2,1.8-2.7,1.8-4.5c0-1.7-0.6-3.2-1.8-4.5c-1.2-1.2-2.7-1.8-4.5-1.8
	c-1.8,0-3.4,0.6-4.6,1.8c-1.2,1.2-1.8,2.7-1.8,4.5c0,1.8,0.6,3.3,1.9,4.5C285,19.2,286.5,19.8,288.4,19.8"/>
</svg>
