<svg xmlns="http://www.w3.org/2000/svg" width="817.556" height="168.418" viewBox="0 0 817.556 168.418">
    <defs>
        <style>
            .cls-1{fill:#ededed}.cls-2{opacity:.196}.cls-3{opacity:.401}.cls-4{opacity:.148}
        </style>
    </defs>
    <g id="Group_305" data-name="Group 305" transform="translate(-552 -2208)">
        <g id="Group_160" data-name="Group 160" transform="translate(864.5 2208)">
            <path id="Path_1" d="M251.211 340.814l21.889 37.915 21.889-37.915z" class="cls-1" data-name="Path 1" transform="translate(-175.787 -210.31)"/>
            <path id="Path_2" d="M123.046 119.054l21.89 37.914 21.894-37.914z" class="cls-1" data-name="Path 2" transform="translate(-123.046 -119.054)"/>
            <path id="Path_3" d="M379.252 119.054l21.889 37.914 21.891-37.914z" class="cls-1" data-name="Path 3" transform="translate(-228.477 -119.054)"/>
            <path id="Path_4" d="M310.1 162.556l-21.894 37.912H187.751l-21.89-37.912zm-47.011 81.414l21.895-37.913h-94.011l21.888 37.913zm21.895-124.916h-94.147L169 156.968h137.811z" class="cls-1" data-name="Path 4" transform="translate(-140.665 -119.054)"/>
        </g>
        <g id="Group_161" class="cls-2" data-name="Group 161" transform="translate(656.5 2208)">
            <path id="Path_1-2" d="M251.211 340.814l21.889 37.915 21.889-37.915z" class="cls-1" data-name="Path 1" transform="translate(-175.787 -210.31)"/>
            <path id="Path_2-2" d="M123.046 119.054l21.89 37.914 21.894-37.914z" class="cls-1" data-name="Path 2" transform="translate(-123.046 -119.054)"/>
            <path id="Path_3-2" d="M379.252 119.054l21.889 37.914 21.891-37.914z" class="cls-1" data-name="Path 3" transform="translate(-228.477 -119.054)"/>
            <path id="Path_4-2" d="M310.1 162.556l-21.894 37.912H187.751l-21.89-37.912zm-47.011 81.414l21.895-37.913h-94.011l21.888 37.913zm21.895-124.916h-94.147L169 156.968h137.811z" class="cls-1" data-name="Path 4" transform="translate(-140.665 -119.054)"/>
        </g>
        <g id="Group_219" class="cls-2" data-name="Group 219" transform="translate(1071.5 2208)">
            <path id="Path_1-3" d="M251.211 340.814l21.889 37.915 21.889-37.915z" class="cls-1" data-name="Path 1" transform="translate(-175.787 -210.31)"/>
            <path id="Path_2-3" d="M123.046 119.054l21.89 37.914 21.894-37.914z" class="cls-1" data-name="Path 2" transform="translate(-123.046 -119.054)"/>
            <path id="Path_3-3" d="M379.252 119.054l21.889 37.914 21.891-37.914z" class="cls-1" data-name="Path 3" transform="translate(-228.477 -119.054)"/>
            <path id="Path_4-3" d="M310.1 162.556l-21.894 37.912H187.751l-21.89-37.912zm-47.011 81.414l21.895-37.913h-94.011l21.888 37.913zm21.895-124.916h-94.147L169 156.968h137.811z" class="cls-1" data-name="Path 4" transform="translate(-140.665 -119.054)"/>
        </g>
        <g id="Group_163" class="cls-3" data-name="Group 163" transform="rotate(180 581.278 1188.209)">
            <path id="Path_1-4" d="M251.211 340.814l21.889 37.915 21.889-37.915z" class="cls-1" data-name="Path 1" transform="translate(-175.787 -210.31)"/>
            <path id="Path_2-4" d="M123.046 119.054l21.89 37.914 21.894-37.914z" class="cls-1" data-name="Path 2" transform="translate(-123.046 -119.054)"/>
            <path id="Path_3-4" d="M379.252 119.054l21.889 37.914 21.891-37.914z" class="cls-1" data-name="Path 3" transform="translate(-228.477 -119.054)"/>
            <path id="Path_4-4" d="M310.1 162.556l-21.894 37.912H187.751l-21.89-37.912zm-47.011 81.414l21.895-37.913h-94.011l21.888 37.913zm21.895-124.916h-94.147L169 156.968h137.811z" class="cls-1" data-name="Path 4" transform="translate(-140.665 -119.054)"/>
        </g>
        <g id="Group_164" class="cls-4" data-name="Group 164" transform="rotate(180 684.778 1188.209)">
            <path id="Path_1-5" d="M251.211 340.814l21.889 37.915 21.889-37.915z" class="cls-1" data-name="Path 1" transform="translate(-175.787 -210.31)"/>
            <path id="Path_2-5" d="M123.046 119.054l21.89 37.914 21.894-37.914z" class="cls-1" data-name="Path 2" transform="translate(-123.046 -119.054)"/>
            <path id="Path_3-5" d="M379.252 119.054l21.889 37.914 21.891-37.914z" class="cls-1" data-name="Path 3" transform="translate(-228.477 -119.054)"/>
            <path id="Path_4-5" d="M310.1 162.556l-21.894 37.912H187.751l-21.89-37.912zm-47.011 81.414l21.895-37.913h-94.011l21.888 37.913zm21.895-124.916h-94.147L169 156.968h137.811z" class="cls-1" data-name="Path 4" transform="translate(-140.665 -119.054)"/>
        </g>
        <g id="Group_165" class="cls-4" data-name="Group 165" transform="rotate(180 373.278 1188.209)">
            <path id="Path_1-6" d="M251.211 340.814l21.889 37.915 21.889-37.915z" class="cls-1" data-name="Path 1" transform="translate(-175.787 -210.31)"/>
            <path id="Path_2-6" d="M123.046 119.054l21.89 37.914 21.894-37.914z" class="cls-1" data-name="Path 2" transform="translate(-123.046 -119.054)"/>
            <path id="Path_3-6" d="M379.252 119.054l21.889 37.914 21.891-37.914z" class="cls-1" data-name="Path 3" transform="translate(-228.477 -119.054)"/>
            <path id="Path_4-6" d="M310.1 162.556l-21.894 37.912H187.751l-21.89-37.912zm-47.011 81.414l21.895-37.913h-94.011l21.888 37.913zm21.895-124.916h-94.147L169 156.968h137.811z" class="cls-1" data-name="Path 4" transform="translate(-140.665 -119.054)"/>
        </g>
        <g id="Group_166" class="cls-3" data-name="Group 166" transform="rotate(180 477.5 1188.209)">
            <path id="Path_1-7" d="M251.211 340.814l21.889 37.915 21.889-37.915z" class="cls-1" data-name="Path 1" transform="translate(-175.787 -210.31)"/>
            <path id="Path_2-7" d="M123.046 119.054l21.89 37.914 21.894-37.914z" class="cls-1" data-name="Path 2" transform="translate(-123.046 -119.054)"/>
            <path id="Path_3-7" d="M379.252 119.054l21.889 37.914 21.891-37.914z" class="cls-1" data-name="Path 3" transform="translate(-228.477 -119.054)"/>
            <path id="Path_4-7" d="M310.1 162.556l-21.894 37.912H187.751l-21.89-37.912zm-47.011 81.414l21.895-37.913h-94.011l21.888 37.913zm21.895-124.916h-94.147L169 156.968h137.811z" class="cls-1" data-name="Path 4" transform="translate(-140.665 -119.054)"/>
        </g>
    </g>
</svg>
