<svg xmlns="http://www.w3.org/2000/svg" width="100.811" height="112.457" viewBox="0 0 100.811 112.457">
    <defs>
        <style>
            .cls-1{fill:#b98757}.cls-2{fill:#b70019}
        </style>
    </defs>
    <g id="Group_39" data-name="Group 39" transform="translate(-123.046 -119.054)">
        <path id="Path_28" d="M251.211 340.814l11.344 19.646 11.345-19.646z" class="cls-1" data-name="Path 28" transform="translate(-89.083 -154.138)"/>
        <path id="Path_29" d="M123.046 119.054l11.343 19.646 11.345-19.645z" class="cls-1" data-name="Path 29"/>
        <path id="Path_30" d="M379.252 119.054l11.342 19.646 11.343-19.645z" class="cls-1" data-name="Path 30" transform="translate(-178.081)"/>
        <path id="Path_31" d="M240.6 141.595l-11.344 19.645H177.2l-11.342-19.645zm-24.36 42.185l11.345-19.645h-48.712l11.342 19.645zm11.345-64.726H178.8L167.49 138.7h71.41z" class="cls-2" data-name="Path 31" transform="translate(-29.76)"/>
        <g id="Group_38" data-name="Group 38" transform="translate(139.016 217.641)">
            <path id="Path_32" d="M181.8 456.051q-.144-.419-1.2-3.214l-3.252-8.045a11.439 11.439 0 0 0-.7-1.563q-.143-.187-1.147-.254l-.087-.086v-.439l.087-.086q1.463.076 2.486.076.956 0 2.535-.076l.076.076v.526l-.076.077a7.067 7.067 0 0 0-1.382.071.274.274 0 0 0-.225.273 7.253 7.253 0 0 0 .306 1.018q.306.9.545 1.525l2.994 7.567 2.5-6.275q.259-.641.756-2.066a8.775 8.775 0 0 0 .5-1.712.291.291 0 0 0-.234-.306 11.339 11.339 0 0 0-1.4-.163l-.086-.076v-.459l.086-.076q1.674.076 2.133.076.373 0 1.933-.076l.076.076v.459l-.076.076a2.756 2.756 0 0 0-.832.105.648.648 0 0 0-.254.3q-.11.22-.685 1.512l-2.984 7.346q-1 2.459-1.426 3.817z" class="cls-2" data-name="Path 32" transform="translate(-175.419 -442.363)"/>
            <path id="Path_33" d="M223.447 442.429l.076-.066q3.282.056 4.2.057 3.138 0 5.587-.057l.048.066a16.239 16.239 0 0 0-.354 2.879l-.057.076h-.469l-.086-.076a1.46 1.46 0 0 0 .009-.152 9.328 9.328 0 0 0-.124-1.55 5.185 5.185 0 0 0-1.67-.35q-1.066-.08-1.6-.081-.756 0-1.933.105l-.038 1.531-.029 1.751-.029 1.941q1.034.058 1.9.058t1.474-.058a2.494 2.494 0 0 0 .694-.119.4.4 0 0 0 .152-.24 3.57 3.57 0 0 0 .091-.626l.038-.593.077-.076h.439l.077.076q-.019 1.042-.048 2.095l.048 2.153-.077.076h-.439l-.077-.076-.066-.575a8.056 8.056 0 0 0-.125-.8.423.423 0 0 0-.177-.225 1.9 1.9 0 0 0-.713-.152q-.574-.058-1.578-.058-.555 0-1.694.048-.047.8-.048 2.679 0 2.009.048 2.956h1.761q2.325 0 2.908-.058a3.82 3.82 0 0 0 1.111-.278q.085-.22.281-1.018c.131-.533.206-.866.225-1l.1-.066h.459l.076.066a13.338 13.338 0 0 0-.168 1.435q-.08 1.024-.081 1.751l-.066.076q-1.827-.057-4.783-.057l-2.6-.019q-.909 0-1.895.076l-.076-.076v-.316l.076-.1a5.076 5.076 0 0 0 .646-.358 7.458 7.458 0 0 0 .134-1.673c.035-1.069.052-1.883.052-2.445v-3.51l-.01-2.171q0-.708-.019-1.153a3.585 3.585 0 0 0-.067-.636.723.723 0 0 0-.11-.269.472.472 0 0 0-.2-.128 2.221 2.221 0 0 0-.474-.091l-.727-.058-.076-.067z" class="cls-2" data-name="Path 33" transform="translate(-208.802 -442.363)"/>
            <path id="Path_34" d="M261.532 455.869v-.459l2.305-2.85 5.462-7.031q1.245-1.589 1.675-2.278h-.393l-1.54-.008q-2.029 0-3.267.062t-1.636.128a.833.833 0 0 0-.488.188 1.4 1.4 0 0 0-.148.569l-.134 1.262-.086.086h-.449l-.086-.086c.031-.485.047-.869.047-1.158q0-1.166-.047-1.845l.086-.086q3.415.076 4.773.076 2.258 0 5.932-.076l.086.086v.488q-1.051 1.242-1.473 1.779l-7.97 10.265 3.874.066q1.158 0 2.334-.058c.785-.038 1.3-.076 1.551-.114a1.142 1.142 0 0 0 .51-.168.611.611 0 0 0 .188-.22 4.6 4.6 0 0 0 .154-.656l.21-1.281.086-.076h.45l.076.076q-.067.612-.133 3.329l-.087.076q-4.04-.076-6.372-.076-1.636 0-5.4.076z" class="cls-2" data-name="Path 34" transform="translate(-235.273 -442.363)"/>
            <path id="Path_35" d="M304.2 442.429l.076-.066q2.373.076 2.736.076.325 0 2.746-.076l.076.066v.478l-.076.067c-.441.013-.782.033-1.021.058a1.236 1.236 0 0 0-.52.143.68.68 0 0 0-.217.493 8.554 8.554 0 0 0-.05 1.076l-.02 2.2v3.042q0 1.5.061 2.205a3.911 3.911 0 0 0 .267 1.185 2.2 2.2 0 0 0 .628.833 3.268 3.268 0 0 0 1.205.569 6.59 6.59 0 0 0 1.779.219 6.414 6.414 0 0 0 1.964-.292 2.983 2.983 0 0 0 1.394-.847 2.908 2.908 0 0 0 .625-1.458 16.341 16.341 0 0 0 .15-2.511v-2.946q0-.746-.025-2.053a6.531 6.531 0 0 0-.115-1.5.6.6 0 0 0-.335-.3 5.329 5.329 0 0 0-1.352-.12l-.077-.076v-.449l.077-.086q1.416.076 2.267.076.728 0 2.258-.076l.087.076v.459l-.087.076a9.042 9.042 0 0 0-1.173.073.77.77 0 0 0-.383.158.648.648 0 0 0-.163.325 9.143 9.143 0 0 0-.07 1.263l-.028 2.153v2.907a21.925 21.925 0 0 1-.134 2.745 3.6 3.6 0 0 1-.6 1.65 4.425 4.425 0 0 1-1.1 1.082 4.833 4.833 0 0 1-1.63.67 8.987 8.987 0 0 1-2.066.234 8.544 8.544 0 0 1-2.369-.3 4.5 4.5 0 0 1-1.62-.783 3.083 3.083 0 0 1-.85-1.029 3.861 3.861 0 0 1-.336-1.272q-.075-.732-.076-2.234v-3.673l-.019-1.866c-.006-.727-.025-1.2-.054-1.406a.88.88 0 0 0-.134-.421.69.69 0 0 0-.348-.172 8.111 8.111 0 0 0-1.273-.105l-.076-.067z" class="cls-2" data-name="Path 35" transform="translate(-264.932 -442.363)"/>
            <path id="Path_36" d="M360.274 456.051q-.144-.419-1.2-3.214l-3.252-8.045a11.315 11.315 0 0 0-.7-1.563q-.143-.187-1.147-.254l-.086-.086v-.439l.086-.086q1.463.076 2.487.076.957 0 2.535-.076l.077.076v.526l-.077.077a7.081 7.081 0 0 0-1.383.071.273.273 0 0 0-.223.273 7.11 7.11 0 0 0 .306 1.018q.305.9.545 1.525l2.995 7.567 2.5-6.275q.258-.641.757-2.066a8.824 8.824 0 0 0 .5-1.712.293.293 0 0 0-.236-.306 11.269 11.269 0 0 0-1.4-.163l-.087-.076v-.459l.087-.076q1.675.076 2.133.076.374 0 1.933-.076l.076.076v.459l-.076.076a2.764 2.764 0 0 0-.833.105.653.653 0 0 0-.255.3c-.074.147-.3.65-.682 1.512l-2.985 7.346q-1 2.459-1.425 3.817z" class="cls-2" data-name="Path 36" transform="translate(-299.471 -442.363)"/>
        </g>
    </g>
</svg>
