<svg xmlns="http://www.w3.org/2000/svg" width="108.349" height="130.805" viewBox="0 0 108.349 130.805">
    <defs>
        <style>
            .cls-1{fill:none}.cls-2{fill:#fddb00}.cls-3{fill:#ff9100}.cls-4{fill:#e22729}.cls-5{fill:#e32b29}.cls-6{fill:#fff}.cls-7{clip-path:url(#clip-path)}.cls-8{fill:url(#linear-gradient)}
        </style>
        <clipPath id="clip-path">
            <path id="Path_172" d="M243.874 579.547a5.745 5.745 0 0 0-5.622 4.56l-3.912 18.558h53.651a5.745 5.745 0 0 0 5.615-4.528l2.52-11.628a5.745 5.745 0 0 0-5.615-6.962z" class="cls-1" data-name="Path 172" transform="translate(-234.341 -579.547)"/>
        </clipPath>
        <linearGradient id="linear-gradient" x1="-.889" x2="-.885" y1="2.244" y2="2.244" gradientUnits="objectBoundingBox">
            <stop offset="0" stop-color="#ef0303"/>
            <stop offset=".505" stop-color="#f5565c"/>
            <stop offset=".519" stop-color="#c00"/>
            <stop offset="1" stop-color="#f00f10"/>
        </linearGradient>
    </defs>
    <g id="Group_179" data-name="Group 179" transform="translate(-140.824 -122.286)">
        <path id="Path_160" d="M281.266 323.228q-3.421 2.911-7.4 5.733t-8.3 5.646q-4.313 2.824-8.653 5.85h30.365a31.417 31.417 0 0 1 .013-23.532c-.026.034-.051.069-.077.1a40.842 40.842 0 0 1-5.947 6.2" class="cls-2" data-name="Path 160" transform="translate(-88.749 -148.801)"/>
        <path id="Path_161" d="M257.3 457.729a33.374 33.374 0 0 1-.7-.71V467.7h-48.093a52.024 52.024 0 0 0 72.672-.473h-.161q-14.186 0-23.717-9.5" class="cls-3" data-name="Path 161" transform="translate(-51.743 -255.902)"/>
        <path id="Path_162" d="M274.45 130.1a30.942 30.942 0 0 1 10.14 5.006 21.828 21.828 0 0 1 8.713 17.9 22.829 22.829 0 0 1-1.427 8.178c-.1.255-.2.508-.305.76a33.613 33.613 0 0 1 3.444-3.9q9.53-9.35 23.717-9.35a36.9 36.9 0 0 1 9.533 1.194 52.06 52.06 0 0 0-70.427-21.5q1.577-.066 3.232-.067a46.754 46.754 0 0 1 13.38 1.779" class="cls-4" data-name="Path 162" transform="translate(-89.456)"/>
        <path id="Path_163" d="M147.11 259.064q7.136-6.227 13.114-10.739t10.318-8.061a54.02 54.02 0 0 0 6.78-6.4 8.872 8.872 0 0 0 2.438-5.763 9.15 9.15 0 0 0-.595-3.26 7.682 7.682 0 0 0-1.844-2.794 8.954 8.954 0 0 0-3.241-1.95 15.827 15.827 0 0 0-9.842.116 10.518 10.518 0 0 0-3.717 2.357 9.935 9.935 0 0 0-2.29 3.551 12.532 12.532 0 0 0-.773 4.482v2.386h-14.27a52.3 52.3 0 0 0-.284 30.153q1.942-2.06 4.206-4.077" class="cls-3" data-name="Path 163" transform="translate(0 -74.219)"/>
        <path id="Path_164" d="M485.021 334.08a13.37 13.37 0 0 0 .055-17.71 12.551 12.551 0 0 0-18.342-.049 12.892 12.892 0 0 0-3.269 8.9 13.309 13.309 0 0 0 3.269 8.954 12.137 12.137 0 0 0 18.287-.1" class="cls-4" data-name="Path 164" transform="translate(-246.658 -145.314)"/>
        <path id="Rectangle_21" d="M0 0h51.336v7.404H0z" class="cls-5" data-name="Rectangle 21" transform="translate(197.837 129.235)"/>
        <path id="Path_165" d="M396.548 157.849h1.478l1.733 3.318 1.771-3.318h1.49l-2.43 4.393h-1.69z" class="cls-6" data-name="Path 165" transform="translate(-195.501 -27.188)"/>
        <path id="Path_166" d="M431.265 157.71a1.2 1.2 0 0 1 1.143 1.092 6.74 6.74 0 0 1 .052 1.122 4.175 4.175 0 0 1-.1 1.218 1.328 1.328 0 0 1-1.331.957c-.336.025-.87.039-1.595.039a5.459 5.459 0 0 1-2.287-.211 1.2 1.2 0 0 1-.628-.984 7.15 7.15 0 0 1-.045-1.066 3.5 3.5 0 0 1 .14-1.389 1.352 1.352 0 0 1 1.265-.786 12.431 12.431 0 0 1 1.4-.051 14.679 14.679 0 0 1 1.994.059m-3.121 1.115c-.255.1-.326.333-.326 1.041 0 1.138.071 1.2 1.46 1.2a4.788 4.788 0 0 0 1.485-.092c.295-.113.365-.334.365-1.138 0-.639-.058-.863-.242-.974s-.415-.134-1.429-.134a3.874 3.874 0 0 0-1.313.1" class="cls-6" data-name="Path 166" transform="translate(-218.375 -27.036)"/>
        <path id="Path_167" d="M456.411 157.849h1.341v3.306h3.022v1.087h-4.364z" class="cls-6" data-name="Path 167" transform="translate(-241.265 -27.188)"/>
        <path id="Path_168" d="M483.127 160.473v.2c0 .664-.1.974-.383 1.184-.369.27-.665.3-2.668.3-1.207 0-1.634-.059-1.986-.29-.433-.277-.559-.736-.559-2.043 0-1.157.131-1.572.594-1.837a3.873 3.873 0 0 1 2.063-.291 7.844 7.844 0 0 1 2.148.134c.521.171.73.539.73 1.291v.15h-1.278c-.027-.479-.125-.518-1.286-.518-1.231 0-1.38.025-1.536.268a2 2 0 0 0-.111.954c0 1.03.106 1.115 1.384 1.115 1.027 0 1.18-.013 1.359-.1s.23-.22.23-.523z" class="cls-6" data-name="Path 168" transform="translate(-257.412 -27.074)"/>
        <path id="Path_169" d="M506 157.849h1.8l2.4 4.393h-1.463l-.435-.784h-2.832l-.422.784h-1.516zm1.834 2.691l-.951-1.75-.934 1.75z" class="cls-6" data-name="Path 169" transform="translate(-277.285 -27.188)"/>
        <path id="Path_170" d="M534.437 157.849h2.129l2.66 3.339-.03-3.339h1.263v4.393h-2.148l-2.623-3.306.031 3.306h-1.282z" class="cls-6" data-name="Path 170" transform="translate(-300.916 -27.188)"/>
        <path id="Path_171" d="M569.259 157.71a1.191 1.191 0 0 1 1.141 1.09 6.542 6.542 0 0 1 .052 1.122 4.312 4.312 0 0 1-.1 1.218 1.335 1.335 0 0 1-1.333.957c-.334.025-.868.039-1.594.039a5.412 5.412 0 0 1-2.282-.211 1.2 1.2 0 0 1-.636-.984 7.462 7.462 0 0 1-.045-1.066 3.412 3.412 0 0 1 .144-1.389 1.344 1.344 0 0 1 1.267-.786 12.34 12.34 0 0 1 1.393-.051 14.816 14.816 0 0 1 2 .059m-3.121 1.115c-.262.1-.331.333-.331 1.041 0 1.138.069 1.2 1.463 1.2a4.751 4.751 0 0 0 1.481-.092c.3-.113.37-.334.37-1.138 0-.639-.06-.863-.244-.974s-.416-.134-1.43-.134a3.822 3.822 0 0 0-1.31.1" class="cls-6" data-name="Path 171" transform="translate(-323.866 -27.036)"/>
        <g id="Group_178" data-name="Group 178" transform="translate(162.848 229.972)">
            <g id="Group_177" class="cls-7" data-name="Group 177">
                <path id="Rectangle_22" d="M0 0h62.154v23.119H0z" class="cls-8" data-name="Rectangle 22"/>
            </g>
        </g>
        <path id="Path_173" d="M278.181 614.591l3.35-15.844h2.569l-2.883 13.622h5.841l-.466 2.222z" class="cls-6" data-name="Path 173" transform="translate(-105.009 -364.253)"/>
        <path id="Path_174" d="M324.933 614.591l3.371-15.844h2.546l-3.37 15.844z" class="cls-6" data-name="Path 174" transform="translate(-140.751 -364.253)"/>
        <path id="Path_175" d="M361.718 611.9q.758-1.93 1.484-3.348l4.931-9.808h2.753l-8.28 15.844h-2.8l-1.561-15.844h2.514l.8 9.808q.1 1.115.119 2.525l-.011.823z" class="cls-6" data-name="Path 175" transform="translate(-166.221 -364.253)"/>
        <path id="Path_176" d="M414.931 614.591h-8.411l3.35-15.844h8.409l-.466 2.221h-5.841l-.91 4.281h5.44l-.444 2.2H410.6l-1.041 4.942h5.841z" class="cls-6" data-name="Path 176" transform="translate(-203.124 -364.253)"/>
    </g>
</svg>
