<svg xmlns="http://www.w3.org/2000/svg" id="Group_252" width="412.136" height="113.182" data-name="Group 252" viewBox="0 0 412.136 113.182">
    <defs>
        <style>
            .cls-1{fill:#040505}.cls-2{fill:#e3001b}.cls-3{fill:#eeeeef}.cls-4{fill:#0a0406}.cls-5{fill:#fff}
        </style>
    </defs>
    <g id="Group_236" data-name="Group 236" transform="translate(91.524 64.201)">
        <g id="Group_227" data-name="Group 227" transform="translate(0 .916)">
            <path id="Path_359" d="M67.781 42.761h20.538a10.739 10.739 0 0 1 6.4 1.81 5.5 5.5 0 0 1 2.525 4.672A5.039 5.039 0 0 1 96.95 51l-3.477 12.3a10.308 10.308 0 0 1-4.858 5.834 15.933 15.933 0 0 1-8.533 2.4H37.528c-.469 0-.705-.1-.705-.279 0-.123.168-.306.495-.557 3.577-2.154 5.889-3.228 6.956-3.228h24.4c1.054 0 1.684-.407 1.885-1.21Q73.422 56.089 73.43 56c0-.61-.4-.929-1.18-.929H51.712a10.726 10.726 0 0 1-6.4-1.8 5.5 5.5 0 0 1-2.53-4.674 4.922 4.922 0 0 1 .3-1.662l3.472-12.386a10.662 10.662 0 0 1 4.863-5.794 15.679 15.679 0 0 1 8.53-2.445h42.566c.459 0 .693.1.693.274s-.171.374-.492.557c-3.58 2.219-5.882 3.331-6.941 3.331H71.349c-1.057 0-1.682.374-1.883 1.11Q66.6 41.757 66.6 41.842c0 .62.386.919 1.181.919z" class="cls-1" data-name="Path 359" transform="translate(-35.907 -25.389)"/>
            <path id="Path_360" d="M80.634 73H38.08c-1.506 0-1.622-.911-1.622-1.192a1.731 1.731 0 0 1 .854-1.288c5.028-3.03 6.653-3.414 7.514-3.414h24.4c.869 0 .949-.321 1-.52a2252.64 2252.64 0 0 0 2.822-10.052 1.659 1.659 0 0 1-.241.005H52.264a11.712 11.712 0 0 1-6.934-1.973 6.4 6.4 0 0 1-2.915-5.42 5.854 5.854 0 0 1 .349-1.968l3.457-12.329a11.591 11.591 0 0 1 5.252-6.319 16.668 16.668 0 0 1 9.02-2.588h42.566c1.494 0 1.609.911 1.609 1.187a1.583 1.583 0 0 1-.956 1.356c-4.93 3.058-6.545 3.452-7.393 3.452H71.9c-.881 0-.966.3-1 .432-.635 2.254-2.468 8.754-2.807 10.017a1.337 1.337 0 0 0 .236.015h20.54a11.637 11.637 0 0 1 6.931 1.977 6.394 6.394 0 0 1 2.91 5.417 5.987 5.987 0 0 1-.349 2.064l-3.456 12.233a11.25 11.25 0 0 1-5.257 6.361A16.906 16.906 0 0 1 80.634 73zm-40.8-1.845l40.8.013a15.1 15.1 0 0 0 8.05-2.268 9.369 9.369 0 0 0 4.461-5.307l3.477-12.3a4.248 4.248 0 0 0 .259-1.5 4.6 4.6 0 0 0-2.141-3.926 9.871 9.871 0 0 0-5.867-1.639h-20.54a1.832 1.832 0 0 1-2.1-1.838c0-.188 0-.211 2.907-10.519.178-.655.781-1.772 2.761-1.772h24.418c.429 0 1.639-.324 5.016-2.317l-40.842-.013a14.649 14.649 0 0 0-8.041 2.3 9.725 9.725 0 0 0-4.476 5.282l-3.467 12.373a4.272 4.272 0 0 0-.261 1.418 4.608 4.608 0 0 0 2.146 3.929 9.915 9.915 0 0 0 5.87 1.629H72.8a1.83 1.83 0 0 1 2.1 1.845c0 .193 0 .2-2.907 10.509a2.524 2.524 0 0 1-2.766 1.878h-24.4c-.444.003-1.664.311-4.995 2.219z" class="cls-1" data-name="Path 360" transform="translate(-36.458 -25.939)"/>
        </g>
        <g id="Group_228" data-name="Group 228" transform="translate(62.303 .914)">
            <path id="Path_361" d="M63.49 73c-2.054 0-2.214-1.343-2.214-1.752L72.43 31.875c.07-.417-.068-1.007-1.351-2.1-1.873-1.592-2.069-1.971-2.069-2.455 0-.231.088-1.381 1.818-1.381h48.029a11.485 11.485 0 0 1 6.939 2.028 6.5 6.5 0 0 1 2.9 5.455 8.428 8.428 0 0 1-.218 1.878L123.8 51.8a11.248 11.248 0 0 1-5.3 6.364 16.924 16.924 0 0 1-8.957 2.536H89c-.836 0-.951.326-1.009.5l-2.766 10.023A2.649 2.649 0 0 1 82.464 73zm33.755-41.067c-.871 0-.946.286-.987.437l-6.366 22.4 8.229-.068c.881 0 .961-.309 1-.439l6.349-22.388z" class="cls-1" data-name="Path 361" transform="translate(-61.276 -25.938)"/>
        </g>
        <g id="Group_229" data-name="Group 229" transform="translate(61.389)">
            <path id="Path_362" d="M119.409 27.4a10.546 10.546 0 0 1 6.394 1.85 5.612 5.612 0 0 1 2.53 4.717 7.359 7.359 0 0 1-.2 1.672L123.466 52.1a10.329 10.329 0 0 1-4.9 5.837 15.968 15.968 0 0 1-8.48 2.4H89.551a1.75 1.75 0 0 0-1.878 1.12L84.9 71.532a1.768 1.768 0 0 1-1.883 1.1H64.04c-.859 0-1.3-.279-1.3-.836v-.264l11.121-38.856a.9.9 0 0 0 .108-.467c0-.738-.59-1.6-1.745-2.583s-1.747-1.574-1.747-1.755c0-.309.311-.467.9-.467h48.029M90.771 56.168h7.9c1.052 0 1.682-.374 1.883-1.112l6.344-22.38a.329.329 0 0 0 .1-.269c0-.555-.424-.841-1.278-.841H97.8c-1.059 0-1.672.374-1.873 1.112l-6.361 22.39a1.048 1.048 0 0 1-.075.281c0 .545.424.818 1.283.818m28.639-30.594H71.38c-2.159 0-2.734 1.443-2.734 2.3 0 .964.567 1.6 2.392 3.151a4.51 4.51 0 0 1 1.062 1.152L60.982 71.027l-.07.246v.259a2.8 2.8 0 0 0 3.128 2.93h18.974a3.573 3.573 0 0 0 3.6-2.3l2.822-10.222 20.651.223a17.845 17.845 0 0 0 9.437-2.664 12.165 12.165 0 0 0 5.7-6.894l4.676-16.462a9.45 9.45 0 0 0 .266-2.172 7.472 7.472 0 0 0-3.284-6.2 12.358 12.358 0 0 0-7.473-2.2zM91.667 54.361l6.017-21.18 7.112.191-6 21.185-7.127-.2z" class="cls-1" data-name="Path 362" transform="translate(-60.912 -25.574)"/>
        </g>
        <g id="Group_230" data-name="Group 230" transform="translate(125.503 .914)">
            <path id="Path_363" d="M96.307 73a11.693 11.693 0 0 1-6.936-1.976 6.38 6.38 0 0 1-2.92-5.41 6.726 6.726 0 0 1 .354-2.051l8.121-28.719a11.567 11.567 0 0 1 5.257-6.316 16.636 16.636 0 0 1 9.025-2.588h33.032a11.519 11.519 0 0 1 6.941 2.028 6.493 6.493 0 0 1 2.91 5.455 8.662 8.662 0 0 1-.223 1.868l-8.249 28.8a11.228 11.228 0 0 1-5.262 6.359 16.871 16.871 0 0 1-9.013 2.55zm24.321-41.065c-.881 0-.961.309-1 .437l-9.931 34.7 8.229.03c.876 0 .951-.316 1-.51l9.931-34.716z" class="cls-1" data-name="Path 363" transform="translate(-86.451 -25.938)"/>
        </g>
        <g id="Group_231" data-name="Group 231" transform="translate(124.589)">
            <path id="Path_364" d="M142.792 27.4a10.572 10.572 0 0 1 6.4 1.85 5.623 5.623 0 0 1 2.536 4.717 7.662 7.662 0 0 1-.2 1.672l-8.239 28.749a10.308 10.308 0 0 1-4.863 5.834 15.915 15.915 0 0 1-8.528 2.4H96.859a10.717 10.717 0 0 1-6.407-1.807 5.478 5.478 0 0 1-2.533-4.662 5.873 5.873 0 0 1 .306-1.77l8.131-28.749a10.609 10.609 0 0 1 4.868-5.794 15.651 15.651 0 0 1 8.533-2.445h33.034m-32.14 41.172h7.827c1.059 0 1.695-.407 1.888-1.21l9.924-34.681v-.269c0-.555-.394-.841-1.19-.841h-7.92c-1.052 0-1.682.374-1.883 1.112l-9.929 34.692a1.885 1.885 0 0 1-.013.274c0 .615.424.924 1.3.924m32.141-42.993h-33.038a17.529 17.529 0 0 0-9.509 2.729 12.426 12.426 0 0 0-5.649 6.817L86.466 63.9a7.285 7.285 0 0 0 2.927 8.422 12.573 12.573 0 0 0 7.466 2.144H129.9a17.782 17.782 0 0 0 9.492-2.679 12.125 12.125 0 0 0 5.661-6.886l8.237-28.749a9.69 9.69 0 0 0 .271-2.177 7.471 7.471 0 0 0-3.289-6.2 12.4 12.4 0 0 0-7.476-2.2zM111.442 66.75l9.615-33.567 7.125.191-9.575 33.479-7.165-.1z" class="cls-1" data-name="Path 364" transform="translate(-86.087 -25.574)"/>
        </g>
        <g id="Group_232" data-name="Group 232" transform="translate(189.011 .914)">
            <path id="Path_365" d="M147.008 73c-1.823 0-2.553-.864-2.839-1.584l-3.861-10.288c-.093-.183-.3-.429-.934-.429-.743 0-.849.311-.911.5L135.7 71.223A2.648 2.648 0 0 1 132.927 73h-18.964c-2.053 0-2.214-1.343-2.214-1.752l11.139-39.371c-.035-.424-.168-1.034-1.4-2.111-1.86-1.622-1.993-2.006-1.993-2.445 0-.231.09-1.381 1.8-1.381h48.017a11.451 11.451 0 0 1 6.936 2.028 6.493 6.493 0 0 1 2.91 5.455 8.385 8.385 0 0 1-.213 1.878l-4.684 16.5c-.59 2.051-2.149 3.919-4.639 5.563a20.06 20.06 0 0 1-6.683 2.829q.636 1.423 2.342 4.981c2.771 5.789 2.771 5.874 2.771 6.173 0 .276-.1 1.654-2.111 1.654zm.705-41.065c-.884 0-.959.3-1 .429l-6.355 22.406 8.224-.068c.884 0 .964-.3 1-.439l6.359-22.388z" class="cls-1" data-name="Path 365" transform="translate(-111.749 -25.938)"/>
        </g>
        <g id="Group_233" data-name="Group 233" transform="translate(188.097)">
            <path id="Path_366" d="M169.862 27.4a10.528 10.528 0 0 1 6.4 1.85 5.623 5.623 0 0 1 2.535 4.717 7.355 7.355 0 0 1-.193 1.672L173.932 52.1c-.532 1.85-1.953 3.527-4.265 5.051a19.013 19.013 0 0 1-7.433 2.9q.094.478 2.771 6.068c1.787 3.735 2.681 5.653 2.681 5.779 0 .487-.392.738-1.192.738h-18.937q-1.585 0-1.988-1.007l-3.853-10.273a1.822 1.822 0 0 0-1.792-1.022 1.664 1.664 0 0 0-1.777 1.12l-2.782 10.082a1.765 1.765 0 0 1-1.885 1.1h-18.967c-.871 0-1.3-.279-1.3-.836v-.264l11.1-38.856v-.467c0-.738-.552-1.6-1.679-2.583s-1.679-1.574-1.679-1.755c0-.309.294-.467.889-.467h48.014m-28.619 28.76h7.893c1.064 0 1.687-.374 1.885-1.112l6.359-22.38a.4.4 0 0 0 .085-.269c0-.555-.427-.841-1.288-.841h-7.908c-1.064 0-1.69.374-1.883 1.112l-6.356 22.39a.886.886 0 0 1-.075.281c0 .545.424.818 1.288.818m28.624-30.594h-48.015c-2.146 0-2.721 1.443-2.721 2.3 0 .959.577 1.624 2.307 3.135.959.836 1.057 1.243 1.057 1.248v.156l-11.036 38.615-.07.249v.256a2.774 2.774 0 0 0 3.128 2.93h18.966a3.571 3.571 0 0 0 3.61-2.312l2.822-10.212 3.944 10.33a3.592 3.592 0 0 0 3.7 2.194h18.936c2.089 0 3.023-1.29 3.023-2.568 0-.547 0-.592-2.859-6.57-.884-1.845-1.474-3.1-1.87-3.964a21.19 21.19 0 0 0 5.879-2.679c2.686-1.772 4.373-3.816 5.026-6.078l4.672-16.461a9.407 9.407 0 0 0 .261-2.172 7.467 7.467 0 0 0-3.286-6.2 12.34 12.34 0 0 0-7.476-2.2zm-27.73 28.787l6.012-21.18 7.13.193-6.017 21.18-7.125-.193z" class="cls-1" data-name="Path 366" transform="translate(-111.385 -25.574)"/>
        </g>
        <g id="Group_234" data-name="Group 234" transform="translate(256.975 1.107)">
            <path id="Path_367" d="M149.858 72.975c-2.046 0-2.207-1.336-2.207-1.747l11.144-39.376L145 31.9a4.039 4.039 0 0 1-3.048-1.1c-3.125-2.907-3.125-3.058-3.125-3.51 0-.384.176-1.273 1.8-1.273h57.554c2.043 0 2.2 1.331 2.2 1.737 0 3.607-2.129 4.15-3.4 4.15h-13.388c-.889 0-.969.3-1 .442l-11.02 38.864a2.659 2.659 0 0 1-2.771 1.765z" class="cls-1" data-name="Path 367" transform="translate(-138.822 -26.015)"/>
        </g>
        <g id="Group_235" data-name="Group 235" transform="translate(256.064 .193)">
            <path id="Path_368" d="M198.729 27.481q1.284 0 1.285.821c0 2.164-.836 3.233-2.48 3.233h-13.391c-1.064 0-1.692.374-1.89 1.117l-11.011 38.857a1.782 1.782 0 0 1-1.89 1.1h-18.943c-.864 0-1.293-.281-1.293-.831v-.269l11.109-38.856v-.178c0-.628-.429-.939-1.288-.939h-13.391a3.164 3.164 0 0 1-2.392-.828 23.008 23.008 0 0 1-2.864-2.869c0-.241.289-.356.884-.356h57.556m0-1.83h-57.557c-2.638 0-2.714 1.963-2.714 2.187 0 .891.191 1.182 3.449 4.21a4.9 4.9 0 0 0 3.638 1.318h12.592l-10.782 37.639-.07.246v.256a2.8 2.8 0 0 0 3.123 2.93h18.944a3.581 3.581 0 0 0 3.607-2.3l11.053-38.989 13.521.213c1.012 0 4.313-.364 4.313-5.063 0-1.32-.964-2.651-3.118-2.651z" class="cls-1" data-name="Path 368" transform="translate(-138.459 -25.651)"/>
        </g>
    </g>
    <g id="Group_250" data-name="Group 250" transform="translate(89.692 62.371)">
        <g id="Group_237" data-name="Group 237" transform="translate(0 .914)">
            <path id="Path_369" d="M67.051 42.032h20.54a10.732 10.732 0 0 1 6.4 1.81 5.5 5.5 0 0 1 2.525 4.672 5.1 5.1 0 0 1-.3 1.752l-3.477 12.3a10.306 10.306 0 0 1-4.858 5.832 15.917 15.917 0 0 1-8.533 2.4H36.8c-.469 0-.708-.1-.708-.276 0-.126.171-.309.5-.56 3.575-2.154 5.887-3.226 6.956-3.226h24.4c1.054 0 1.684-.407 1.885-1.21C71.741 58.749 72.7 55.32 72.7 55.267c0-.613-.4-.929-1.18-.929H50.985a10.743 10.743 0 0 1-6.4-1.8 5.505 5.505 0 0 1-2.53-4.674 5 5 0 0 1 .294-1.664l3.474-12.386a10.657 10.657 0 0 1 4.863-5.792 15.67 15.67 0 0 1 8.528-2.445h42.566c.459 0 .693.093.693.274s-.171.374-.492.557c-3.581 2.214-5.881 3.328-6.941 3.328H70.619c-1.054 0-1.679.374-1.88 1.107Q65.87 41.029 65.87 41.111c-.001.62.386.921 1.181.921z" class="cls-2" data-name="Path 369" transform="translate(-35.177 -24.658)"/>
            <path id="Path_370" d="M79.9 72.267H37.35c-1.506 0-1.622-.911-1.622-1.192a1.731 1.731 0 0 1 .854-1.288c5.028-3.03 6.653-3.414 7.514-3.414H68.5c.869 0 .949-.321 1-.52a2252.64 2252.64 0 0 0 2.822-10.052 2.055 2.055 0 0 1-.241.005H51.534a11.712 11.712 0 0 1-6.934-1.973 6.4 6.4 0 0 1-2.915-5.42 5.854 5.854 0 0 1 .349-1.968l3.457-12.329a11.591 11.591 0 0 1 5.252-6.316 16.668 16.668 0 0 1 9.02-2.588h42.566c1.494 0 1.609.911 1.609 1.187a1.583 1.583 0 0 1-.956 1.356c-4.93 3.058-6.545 3.452-7.393 3.452H71.17c-.881 0-.967.3-1 .432-.635 2.254-2.468 8.754-2.807 10.017a1.339 1.339 0 0 0 .236.015h20.54a11.637 11.637 0 0 1 6.931 1.981 6.394 6.394 0 0 1 2.91 5.417 5.987 5.987 0 0 1-.349 2.064l-3.456 12.229a11.25 11.25 0 0 1-5.257 6.361 16.906 16.906 0 0 1-9.018 2.544zm-40.8-1.846l40.8.013a15.1 15.1 0 0 0 8.051-2.264 9.369 9.369 0 0 0 4.461-5.307l3.477-12.3a4.248 4.248 0 0 0 .259-1.5 4.6 4.6 0 0 0-2.141-3.926 9.872 9.872 0 0 0-5.864-1.637H67.6a1.832 1.832 0 0 1-2.1-1.838c0-.188 0-.211 2.9-10.519.181-.655.783-1.775 2.764-1.775h24.425c.429 0 1.639-.321 5.016-2.315l-40.842-.013a14.649 14.649 0 0 0-8.041 2.3 9.725 9.725 0 0 0-4.476 5.282l-3.467 12.372a4.272 4.272 0 0 0-.261 1.418 4.608 4.608 0 0 0 2.146 3.929 9.915 9.915 0 0 0 5.869 1.632h20.54a1.83 1.83 0 0 1 2.1 1.845c0 .191 0 .2-2.907 10.509A2.524 2.524 0 0 1 68.5 68.2H44.1c-.447 0-1.667.313-5 2.221z" class="cls-3" data-name="Path 370" transform="translate(-35.728 -25.209)"/>
        </g>
        <g id="Group_240" data-name="Group 240" transform="translate(61.392)">
            <g id="Group_238" data-name="Group 238" transform="translate(.914 .914)">
                <path id="Path_371" d="M62.759 72.267c-2.051 0-2.212-1.341-2.212-1.752L71.7 31.144c.073-.414-.065-1-1.348-2.1-1.873-1.592-2.071-1.973-2.071-2.455 0-.233.09-1.381 1.82-1.381h48.029a11.455 11.455 0 0 1 6.936 2.028 6.489 6.489 0 0 1 2.907 5.453 8.257 8.257 0 0 1-.221 1.878l-4.684 16.5a11.255 11.255 0 0 1-5.3 6.366 16.936 16.936 0 0 1-8.96 2.533H88.269c-.836 0-.951.326-1.012.5L84.5 70.492a2.647 2.647 0 0 1-2.761 1.775zM96.516 31.2c-.871 0-.949.284-.989.437l-6.364 22.4 8.229-.065c.881 0 .962-.309 1-.439l6.346-22.39z" class="cls-2" data-name="Path 371" transform="translate(-60.547 -25.209)"/>
            </g>
            <g id="Group_239" data-name="Group 239">
                <path id="Path_372" d="M118.678 26.675a10.548 10.548 0 0 1 6.4 1.85 5.618 5.618 0 0 1 2.531 4.717 7.5 7.5 0 0 1-.2 1.669l-4.672 16.456a10.348 10.348 0 0 1-4.9 5.837 15.972 15.972 0 0 1-8.48 2.395H88.819a1.754 1.754 0 0 0-1.878 1.122L84.167 70.8a1.768 1.768 0 0 1-1.883 1.1H63.311c-.859 0-1.3-.276-1.3-.836V70.8l11.121-38.856a.921.921 0 0 0 .105-.464c0-.738-.59-1.6-1.742-2.583s-1.747-1.574-1.747-1.757c0-.309.311-.464.9-.464h48.029M90.039 55.439h7.9c1.052 0 1.682-.377 1.883-1.115l6.344-22.38a.322.322 0 0 0 .1-.269c0-.555-.427-.838-1.278-.838h-7.922c-1.059 0-1.672.374-1.87 1.112L88.834 54.34a1 1 0 0 1-.078.281c0 .545.424.818 1.283.818m28.639-30.594H70.649c-2.156 0-2.731 1.443-2.731 2.295 0 .967.567 1.6 2.392 3.153a4.467 4.467 0 0 1 1.059 1.155L60.253 70.3l-.07.246v.254a2.805 2.805 0 0 0 3.128 2.932h18.974a3.576 3.576 0 0 0 3.6-2.3l2.822-10.222 20.651.223a17.816 17.816 0 0 0 9.434-2.666 12.155 12.155 0 0 0 5.7-6.894l4.672-16.458a9.33 9.33 0 0 0 .266-2.172 7.462 7.462 0 0 0-3.284-6.2 12.352 12.352 0 0 0-7.473-2.2zm-27.74 28.787l6.017-21.183 7.112.193-6 21.183-7.125-.193z" class="cls-3" data-name="Path 372" transform="translate(-60.183 -24.845)"/>
            </g>
        </g>
        <g id="Group_243" data-name="Group 243" transform="translate(124.591)">
            <g id="Group_241" data-name="Group 241" transform="translate(.914 .914)">
                <path id="Path_373" d="M95.578 72.267a11.675 11.675 0 0 1-6.936-1.976 6.372 6.372 0 0 1-2.92-5.407 6.713 6.713 0 0 1 .354-2.051l8.124-28.72a11.53 11.53 0 0 1 5.254-6.313 16.623 16.623 0 0 1 9.025-2.588h33.032a11.513 11.513 0 0 1 6.941 2.028 6.492 6.492 0 0 1 2.91 5.453 8.666 8.666 0 0 1-.223 1.87l-8.252 28.8a11.23 11.23 0 0 1-5.259 6.361 16.9 16.9 0 0 1-9.012 2.543zM119.9 31.2c-.881 0-.961.306-1 .437l-9.931 34.7 8.229.033c.874 0 .951-.319 1-.51l9.931-34.719z" class="cls-2" data-name="Path 373" transform="translate(-85.722 -25.209)"/>
            </g>
            <g id="Group_242" data-name="Group 242">
                <path id="Path_374" d="M142.061 26.675a10.574 10.574 0 0 1 6.4 1.85A5.623 5.623 0 0 1 151 33.242a7.816 7.816 0 0 1-.2 1.669l-8.239 28.752a10.3 10.3 0 0 1-4.863 5.832 15.9 15.9 0 0 1-8.53 2.4h-33.04a10.708 10.708 0 0 1-6.4-1.8 5.48 5.48 0 0 1-2.536-4.662 5.79 5.79 0 0 1 .309-1.77l8.131-28.752a10.6 10.6 0 0 1 4.868-5.791 15.644 15.644 0 0 1 8.533-2.445h33.032m-32.143 41.163h7.827c1.059 0 1.695-.407 1.885-1.21l9.924-34.684v-.269c0-.555-.394-.838-1.187-.838h-7.92c-1.052 0-1.682.374-1.883 1.112l-9.928 34.692a2.258 2.258 0 0 1-.013.271c0 .618.424.926 1.3.926m32.138-42.993h-33.036a17.521 17.521 0 0 0-9.509 2.726 12.428 12.428 0 0 0-5.646 6.821l-8.139 28.772a7.5 7.5 0 0 0-.377 2.269 7.336 7.336 0 0 0 3.306 6.156 12.571 12.571 0 0 0 7.463 2.144h33.037a17.749 17.749 0 0 0 9.492-2.681 12.107 12.107 0 0 0 5.661-6.886l8.239-28.749a9.667 9.667 0 0 0 .271-2.174 7.468 7.468 0 0 0-3.289-6.2 12.41 12.41 0 0 0-7.479-2.2zm-31.352 41.173l9.615-33.564 7.125.188-9.577 33.481-7.162-.105z" class="cls-3" data-name="Path 374" transform="translate(-85.358 -24.845)"/>
            </g>
        </g>
        <g id="Group_246" data-name="Group 246" transform="translate(188.1)">
            <g id="Group_244" data-name="Group 244" transform="translate(.914 .914)">
                <path id="Path_375" d="M146.279 72.267c-1.825 0-2.553-.861-2.839-1.582l-3.861-10.29c-.1-.183-.3-.429-.934-.429-.743 0-.851.314-.914.5l-2.766 10.024a2.642 2.642 0 0 1-2.766 1.775h-18.967c-2.051 0-2.212-1.341-2.212-1.752l11.139-39.371c-.035-.424-.171-1.032-1.4-2.109-1.86-1.622-1.993-2.008-1.993-2.445 0-.233.088-1.381 1.8-1.381h48.017a11.44 11.44 0 0 1 6.936 2.028 6.492 6.492 0 0 1 2.91 5.453 8.352 8.352 0 0 1-.213 1.878l-4.684 16.5c-.59 2.051-2.151 3.921-4.642 5.566a20.078 20.078 0 0 1-6.68 2.829q.636 1.423 2.342 4.981c2.772 5.786 2.772 5.872 2.772 6.173 0 .276-.1 1.652-2.111 1.652zm.705-41.063c-.884 0-.961.3-1 .427l-6.361 22.408 8.224-.065c.886 0 .966-.3 1-.439l6.361-22.39z" class="cls-2" data-name="Path 375" transform="translate(-111.02 -25.209)"/>
            </g>
            <g id="Group_245" data-name="Group 245">
                <path id="Path_376" d="M169.133 26.675a10.533 10.533 0 0 1 6.4 1.85 5.62 5.62 0 0 1 2.533 4.717 7.343 7.343 0 0 1-.191 1.669L173.2 51.367c-.53 1.85-1.953 3.525-4.263 5.051a19.043 19.043 0 0 1-7.433 2.9q.094.478 2.772 6.065c1.787 3.738 2.681 5.656 2.681 5.781 0 .487-.394.736-1.192.736h-18.937c-1.059 0-1.72-.334-1.988-1l-3.853-10.273a1.824 1.824 0 0 0-1.792-1.024 1.671 1.671 0 0 0-1.78 1.122l-2.78 10.075a1.767 1.767 0 0 1-1.888 1.1h-18.963c-.874 0-1.3-.276-1.3-.836V70.8l11.1-38.856v-.464c0-.738-.555-1.6-1.682-2.583s-1.679-1.574-1.679-1.757c0-.309.3-.464.889-.464h48.017M140.51 55.439h7.89c1.064 0 1.684-.377 1.885-1.115l6.356-22.38a.374.374 0 0 0 .085-.269c0-.555-.424-.838-1.288-.838h-7.905c-1.064 0-1.69.374-1.883 1.112L139.3 54.34a.9.9 0 0 1-.075.281c0 .545.424.818 1.288.818m28.624-30.594h-48.02c-2.146 0-2.719 1.443-2.719 2.295 0 .959.575 1.624 2.307 3.135.956.836 1.057 1.245 1.057 1.25v.156L110.726 70.3l-.07.246v.254a2.776 2.776 0 0 0 3.128 2.932h18.964a3.567 3.567 0 0 0 3.61-2.312l2.822-10.212 3.946 10.33a3.592 3.592 0 0 0 3.7 2.194h18.936c2.089 0 3.022-1.29 3.022-2.568 0-.547 0-.592-2.859-6.57a274.714 274.714 0 0 1-1.87-3.964 21.224 21.224 0 0 0 5.879-2.679c2.686-1.772 4.373-3.816 5.023-6.08l4.674-16.458a9.407 9.407 0 0 0 .261-2.172 7.468 7.468 0 0 0-3.289-6.2 12.326 12.326 0 0 0-7.473-2.2zM141.4 53.632l6.015-21.183 7.127.193-6.015 21.183-7.127-.193z" class="cls-3" data-name="Path 376" transform="translate(-110.656 -24.845)"/>
            </g>
        </g>
        <g id="Group_249" data-name="Group 249" transform="translate(256.064 .191)">
            <g id="Group_247" data-name="Group 247" transform="translate(.914 .914)">
                <path id="Path_377" d="M149.129 72.247c-2.046 0-2.207-1.338-2.207-1.747l11.141-39.376-13.8.048a4.038 4.038 0 0 1-3.048-1.1c-3.125-2.907-3.125-3.058-3.125-3.51 0-.384.173-1.275 1.8-1.275h57.556c2.041 0 2.2 1.333 2.2 1.74 0 3.607-2.129 4.147-3.4 4.147h-13.382c-.891 0-.972.3-1.007.444L170.844 70.48a2.66 2.66 0 0 1-2.771 1.767z" class="cls-2" data-name="Path 377" transform="translate(-138.093 -25.285)"/>
            </g>
            <g id="Group_248" data-name="Group 248">
                <path id="Path_378" d="M198 26.754c.859 0 1.288.271 1.288.821 0 2.164-.836 3.233-2.48 3.233h-13.395c-1.062 0-1.69.374-1.89 1.115l-11.008 38.858a1.782 1.782 0 0 1-1.89 1.1h-18.946c-.861 0-1.29-.281-1.29-.831v-.269L159.5 31.923v-.178q0-.938-1.288-.936h-13.396a3.162 3.162 0 0 1-2.39-.828 23.217 23.217 0 0 1-2.864-2.869c0-.241.289-.356.884-.356H198m0-1.833h-57.555c-2.638 0-2.716 1.966-2.716 2.189 0 .889.193 1.182 3.449 4.21a4.91 4.91 0 0 0 3.638 1.318h12.592l-10.78 37.641-.07.246v.256a2.8 2.8 0 0 0 3.12 2.93h18.946a3.581 3.581 0 0 0 3.607-2.3l11.053-38.992 13.521.216c1.012 0 4.31-.367 4.31-5.063 0-1.32-.964-2.653-3.118-2.653z" class="cls-3" data-name="Path 378" transform="translate(-137.729 -24.921)"/>
            </g>
        </g>
    </g>
    <path id="Rectangle_50" d="M0 0h412.136v57.031H0z" class="cls-4" data-name="Rectangle 50"/>
    <path id="Path_379" d="M261.974 57.027H114.705L99.418 0h162.556z" class="cls-2" data-name="Path 379" transform="translate(150.162)"/>
    <path id="Path_380" d="M8.928 6.812h7.04l8.242 17.236 8.43-17.236h7.094L28.162 29.631H20.1z" class="cls-5" data-name="Path 380" transform="translate(13.485 10.29)"/>
    <path id="Path_381" d="M45.109 7.113c3.3.56 4.88 2.187 5.443 5.553a37.117 37.117 0 0 1 .241 5.7 22.323 22.323 0 0 1-.5 6.2c-.68 2.882-2.874 4.559-6.334 4.868-1.6.128-4.135.2-7.589.2-7.288 0-9.093-.173-10.878-1.077-1.634-.841-2.631-2.475-2.992-5a38.459 38.459 0 0 1-.211-5.41c0-4.323.085-5.395.66-7.072.791-2.3 2.847-3.625 6.022-3.992a55.31 55.31 0 0 1 6.65-.264c6.246 0 8.056.063 9.487.3m-14.851 5.662c-1.21.532-1.559 1.695-1.559 5.289 0 5.786.349 6.088 6.956 6.088 4.845 0 6.105-.06 7.062-.474 1.4-.562 1.74-1.7 1.74-5.779 0-3.256-.279-4.386-1.15-4.953-.876-.59-1.976-.675-6.8-.675-4 0-5.3.085-6.246.5" class="cls-5" data-name="Path 381" transform="translate(33.665 10.292)"/>
    <path id="Path_382" d="M35.656 6.812h6.378v17.169h14.388v5.65H35.656z" class="cls-5" data-name="Path 382" transform="translate(53.854 10.29)"/>
    <path id="Path_383" d="M71.716 20.986v1.029c0 3.4-.474 4.983-1.82 6.053-1.757 1.391-3.163 1.559-12.7 1.559-5.744 0-7.777-.3-9.447-1.484-2.064-1.416-2.669-3.768-2.669-10.446 0-5.922.633-8.041 2.829-9.391 1.875-1.19 3.864-1.494 9.826-1.494 6.54 0 8.761.148 10.22.68 2.475.876 3.472 2.759 3.472 6.607v.763h-6.08c-.136-2.45-.595-2.659-6.12-2.659-5.859 0-6.565.128-7.313 1.386-.4.705-.532 1.815-.532 4.87 0 5.259.515 5.7 6.59 5.7 4.88 0 5.618-.06 6.467-.5.818-.447 1.095-1.12 1.095-2.674z" class="cls-5" data-name="Path 383" transform="translate(68.094 10.289)"/>
    <path id="Path_384" d="M68.44 6.812h8.55l11.437 22.82h-6.96L79.4 25.56H65.92l-2.008 4.072h-7.223zm8.734 13.983l-4.529-9.083-4.445 9.083z" class="cls-5" data-name="Path 384" transform="translate(85.623 10.289)"/>
    <path id="Path_385" d="M70.492 6.812h10.133l12.65 17.348V6.817h5.873v22.814H88.93L76.437 12.458v17.173h-5.945z" class="cls-5" data-name="Path 385" transform="translate(106.471 10.29)"/>
    <path id="Path_386" d="M106.747 7.113c3.291.56 4.863 2.187 5.417 5.553a30.828 30.828 0 0 1 .251 5.458 25.845 25.845 0 0 1-.479 6.442c-.7 2.882-2.9 4.559-6.346 4.868-1.592.128-4.471.2-7.93.2-7.3 0-8.744-.173-10.526-1.077-1.642-.841-2.641-2.475-3.028-5a41.213 41.213 0 0 1-.213-5.427c0-4.318.1-5.377.693-7.054.778-2.3 2.812-3.625 6.02-3.992a63.234 63.234 0 0 1 7.054-.264c6.243 0 7.644.063 9.088.3m-14.855 5.661c-1.248.532-1.577 1.747-1.577 5.342 0 5.784.71 6.035 7.343 6.035 4.828 0 5.736-.06 6.67-.474 1.411-.562 1.77-1.476 1.77-5.561 0-3.253-.291-4.6-1.167-5.171-.876-.59-2.44-.675-7.273-.675-4.009 0-4.84.085-5.766.5" class="cls-5" data-name="Path 386" transform="translate(126.711 10.292)"/>
    <g id="Group_251" data-name="Group 251" transform="translate(267.034 16.978)">
        <path id="Path_387" d="M119.111 12.969a3.807 3.807 0 0 0-3.527-1.868c-1.551 0-3.459.6-3.459 2.322 0 1.418 1.059 1.8 3 2.37 3.208.916 4.973 2.257 4.973 4.971 0 3.67-3.489 5.43-6.879 5.43-3.208 0-5.573-1.265-6.848-3.276l2.651-1.725a4.683 4.683 0 0 0 4.2 2.287c1.976 0 3.665-.808 3.665-2.465 0-1.449-1.157-2.048-3.452-2.789-2.613-.851-4.481-1.8-4.481-4.514 0-3.281 3.284-5.222 6.884-5.222 2.571 0 4.792 1.019 5.814 2.819z" class="cls-5" data-name="Path 387" transform="translate(-106.371 -4.155)"/>
        <path id="Path_388" d="M124.311 25.393c.1-.665.246-1.971.351-2.714h-.075a6.488 6.488 0 0 1-5.573 3.176c-3.665 0-5.606-2.192-5.606-5.186a9.161 9.161 0 0 1 .176-1.654l1.835-10.343h3.246l-1.627 9.213a12.03 12.03 0 0 0-.176 1.9c0 1.936.813 3.281 3.211 3.281 2.646 0 4.73-2.149 5.322-5.505l1.592-8.892h3.246l-2.295 13.091c-.141.884-.419 2.5-.527 3.633z" class="cls-5" data-name="Path 388" transform="translate(-95.742 -3.881)"/>
        <path id="Path_389" d="M128 11.607a7.475 7.475 0 0 1 6.1-3.107 6.89 6.89 0 0 1 7.3 7.232c0 5.749-4.062 10.37-9.524 10.37a6.221 6.221 0 0 1-5.824-3.176h-.068l-1.946 11.184h-3.281l4.448-25.192h3.176l-.457 2.684zm5.362-.387c-3.7 0-6.627 3.349-6.627 7.34a4.6 4.6 0 0 0 4.83 4.868c3.876 0 6.457-3.286 6.457-7.378-.004-2.713-1.664-4.83-4.664-4.83z" class="cls-5" data-name="Path 389" transform="translate(-84.636 -4.133)"/>
        <path id="Path_390" d="M136.872 11.607a7.462 7.462 0 0 1 6.1-3.1 6.892 6.892 0 0 1 7.308 7.232c0 5.749-4.062 10.37-9.53 10.37a6.223 6.223 0 0 1-5.824-3.176h-.068l-1.938 11.182h-3.286l4.448-25.192h3.178l-.462 2.684zm5.362-.387c-3.705 0-6.632 3.349-6.632 7.34a4.6 4.6 0 0 0 4.833 4.868c3.879 0 6.454-3.286 6.454-7.378-.001-2.713-1.658-4.83-4.655-4.83z" class="cls-5" data-name="Path 390" transform="translate(-71.234 -4.133)"/>
        <path id="Path_391" d="M139.126 18.828c0-5.543 4.019-10.338 10.052-10.338 4.624 0 7.905 2.922 7.905 7.227 0 5.648-4.024 10.411-10.022 10.411-4.586 0-7.935-2.965-7.935-7.3zm9.838-7.627c-3.841 0-6.525 3.429-6.525 7.34a4.524 4.524 0 0 0 4.8 4.833c3.843 0 6.525-3.354 6.525-7.34a4.6 4.6 0 0 0-4.8-4.834z" class="cls-5" data-name="Path 391" transform="translate(-56.898 -4.155)"/>
        <path id="Path_392" d="M149.8 12.584c.143-.886.429-2.508.532-3.64h3.105c-.105.67-.251 2.119-.354 2.822h.073a6.034 6.034 0 0 1 5.214-3.276 4.557 4.557 0 0 1 1.31.143l-.57 3.065a6.365 6.365 0 0 0-1.443-.178c-3.213 0-4.873 2.543-5.365 5.367l-1.554 8.779h-3.241z" class="cls-5" data-name="Path 392" transform="translate(-44.239 -4.155)"/>
        <path id="Path_393" d="M163.438 14.236H159.3l-1.587 8.786a6.231 6.231 0 0 0-.108 1.054c0 1.413.778 1.8 2.013 1.8a3.883 3.883 0 0 0 1.8-.389l-.246 2.613a7.463 7.463 0 0 1-2.646.457c-2.573 0-4.233-1.095-4.233-3.6a9.033 9.033 0 0 1 .141-1.654l1.627-9.068h-3.181l.5-2.684h3.143l.808-4.79h3.246l-.849 4.79h4.2z" class="cls-5" data-name="Path 393" transform="translate(-36.121 -6.763)"/>
    </g>
</svg>
