<svg width="212" height="41" viewBox="0 0 212 41" fill="none" xmlns="http://www.w3.org/2000/svg">
<rect y="1" width="212" height="39.2727" fill="black"/>
<path d="M20.5028 13.5455H17.4283L21.9474 26.6364H25.5142L30.027 13.5455H26.9588L23.7884 23.4915H23.6669L20.5028 13.5455ZM43.1227 20.0909C43.1227 15.8082 40.4636 13.3665 36.9927 13.3665C33.5027 13.3665 30.8627 15.8082 30.8627 20.0909C30.8627 24.3544 33.5027 26.8153 36.9927 26.8153C40.4636 26.8153 43.1227 24.3736 43.1227 20.0909ZM40.3166 20.0909C40.3166 22.8651 38.9998 24.3672 36.9927 24.3672C34.9792 24.3672 33.6689 22.8651 33.6689 20.0909C33.6689 17.3168 34.9792 15.8146 36.9927 15.8146C38.9998 15.8146 40.3166 17.3168 40.3166 20.0909ZM45.1729 26.6364H53.5529V24.3544H47.9407V13.5455H45.1729V26.6364ZM66.4265 18.1286C66.0621 15.1051 63.7738 13.3665 60.744 13.3665C57.2859 13.3665 54.646 15.8082 54.646 20.0909C54.646 24.3608 57.2411 26.8153 60.744 26.8153C64.0998 26.8153 66.1261 24.5845 66.4265 22.1747L63.6268 22.1619C63.3647 23.5618 62.2653 24.3672 60.7887 24.3672C58.8008 24.3672 57.4521 22.8906 57.4521 20.0909C57.4521 17.3679 58.7816 15.8146 60.8079 15.8146C62.3228 15.8146 63.4158 16.6903 63.6268 18.1286H66.4265ZM70.6676 26.6364L71.6392 23.6513H76.3629L77.3345 26.6364H80.3004L75.7876 13.5455H72.2209L67.7017 26.6364H70.6676ZM72.3423 21.4908L73.9531 16.5369H74.0554L75.6662 21.4908H72.3423ZM92.8256 13.5455H90.0707V21.7784H89.9556L84.305 13.5455H81.8761V26.6364H84.6438V18.397H84.7397L90.435 26.6364H92.8256V13.5455ZM107.142 20.0909C107.142 15.8082 104.483 13.3665 101.012 13.3665C97.5222 13.3665 94.8823 15.8082 94.8823 20.0909C94.8823 24.3544 97.5222 26.8153 101.012 26.8153C104.483 26.8153 107.142 24.3736 107.142 20.0909ZM104.336 20.0909C104.336 22.8651 103.019 24.3672 101.012 24.3672C98.9988 24.3672 97.6884 22.8651 97.6884 20.0909C97.6884 17.3168 98.9988 15.8146 101.012 15.8146C103.019 15.8146 104.336 17.3168 104.336 20.0909Z" fill="white"/>
<line y1="-0.5" x2="46.5548" y2="-0.5" transform="matrix(-0.537002 -0.843581 0.797092 -0.603858 176 40.2727)" stroke="black"/>
<line y1="-0.5" x2="42.4069" y2="-0.5" transform="matrix(0.377297 0.926092 -0.899814 0.436274 114 1)" stroke="black"/>
<path d="M116 1H212V40.2727H127.143L116 1Z" fill="#E72525"/>
<path d="M136.278 17.0909H133.949V14.4773H132.273V17.0909H130.625V18.5114H132.273V25.3295C132.273 27.233 133.807 28.142 135.227 28.142C135.852 28.142 136.25 28.0284 136.477 27.9432L136.136 26.4375C135.994 26.4659 135.767 26.5227 135.398 26.5227C134.659 26.5227 133.949 26.2955 133.949 24.875V18.5114H136.278V17.0909ZM143.114 28.2273C146.069 28.2273 148.058 25.983 148.058 22.6023C148.058 19.1932 146.069 16.9489 143.114 16.9489C140.16 16.9489 138.171 19.1932 138.171 22.6023C138.171 25.983 140.16 28.2273 143.114 28.2273ZM143.114 26.7216C140.87 26.7216 139.847 24.7898 139.847 22.6023C139.847 20.4148 140.87 18.4545 143.114 18.4545C145.359 18.4545 146.381 20.4148 146.381 22.6023C146.381 24.7898 145.359 26.7216 143.114 26.7216ZM150.616 28H152.292V21.1818C152.292 19.5838 153.457 18.4545 154.764 18.4545C156.035 18.4545 156.923 19.2855 156.923 20.5284V28H158.627V20.8977C158.627 19.4915 159.508 18.4545 161.042 18.4545C162.235 18.4545 163.258 19.0866 163.258 20.6989V28H164.934V20.6989C164.934 18.1349 163.556 16.9489 161.61 16.9489C160.048 16.9489 158.904 17.6662 158.343 18.7955H158.23C157.69 17.6307 156.738 16.9489 155.304 16.9489C153.883 16.9489 152.832 17.6307 152.377 18.7955H152.235V17.0909H150.616V28ZM168.226 28H169.846V26.3239H170.044C170.414 26.9205 171.124 28.2273 173.226 28.2273C175.953 28.2273 177.857 26.0398 177.857 22.5739C177.857 19.1364 175.953 16.9489 173.198 16.9489C171.067 16.9489 170.414 18.2557 170.044 18.8239H169.902V13.4545H168.226V28ZM169.874 22.5455C169.874 20.1023 170.953 18.4545 172.999 18.4545C175.13 18.4545 176.181 20.2443 176.181 22.5455C176.181 24.875 175.101 26.7216 172.999 26.7216C170.982 26.7216 169.874 25.017 169.874 22.5455ZM184.853 28.2273C187.807 28.2273 189.796 25.983 189.796 22.6023C189.796 19.1932 187.807 16.9489 184.853 16.9489C181.898 16.9489 179.909 19.1932 179.909 22.6023C179.909 25.983 181.898 28.2273 184.853 28.2273ZM184.853 26.7216C182.608 26.7216 181.586 24.7898 181.586 22.6023C181.586 20.4148 182.608 18.4545 184.853 18.4545C187.097 18.4545 188.12 20.4148 188.12 22.6023C188.12 24.7898 187.097 26.7216 184.853 26.7216ZM194.031 13.4545H192.354V28H194.031V13.4545ZM200.311 28.2557C202.214 28.2557 203.208 27.233 203.549 26.5227H203.635V28H205.311V20.8125C205.311 17.3466 202.669 16.9489 201.277 16.9489C199.629 16.9489 197.754 17.517 196.902 19.5057L198.493 20.0739C198.862 19.2784 199.735 18.4261 201.333 18.4261C202.875 18.4261 203.635 19.2429 203.635 20.642V20.6989C203.635 21.5085 202.811 21.4375 200.822 21.6932C198.798 21.956 196.589 22.4034 196.589 24.9034C196.589 27.0341 198.237 28.2557 200.311 28.2557ZM200.566 26.75C199.231 26.75 198.265 26.1534 198.265 24.9886C198.265 23.7102 199.43 23.3125 200.737 23.142C201.447 23.0568 203.35 22.858 203.635 22.517V24.0511C203.635 25.4148 202.555 26.75 200.566 26.75Z" fill="white"/>
</svg>
