<svg width="212" height="38" viewBox="0 0 212 38" fill="none" xmlns="http://www.w3.org/2000/svg">
<rect y="1" width="212" height="36" fill="black"/>
<path d="M20.5028 12.9091H17.4283L21.9474 26H25.5142L30.027 12.9091H26.9588L23.7884 22.8551H23.6669L20.5028 12.9091ZM43.1227 19.4545C43.1227 15.1719 40.4636 12.7301 36.9927 12.7301C33.5027 12.7301 30.8627 15.1719 30.8627 19.4545C30.8627 23.718 33.5027 26.179 36.9927 26.179C40.4636 26.179 43.1227 23.7372 43.1227 19.4545ZM40.3166 19.4545C40.3166 22.2287 38.9998 23.7308 36.9927 23.7308C34.9792 23.7308 33.6689 22.2287 33.6689 19.4545C33.6689 16.6804 34.9792 15.1783 36.9927 15.1783C38.9998 15.1783 40.3166 16.6804 40.3166 19.4545ZM45.1729 26H53.5529V23.718H47.9407V12.9091H45.1729V26ZM66.4265 17.4922C66.0621 14.4688 63.7738 12.7301 60.744 12.7301C57.2859 12.7301 54.646 15.1719 54.646 19.4545C54.646 23.7244 57.2411 26.179 60.744 26.179C64.0998 26.179 66.1261 23.9482 66.4265 21.5384L63.6268 21.5256C63.3647 22.9254 62.2653 23.7308 60.7887 23.7308C58.8008 23.7308 57.4521 22.2543 57.4521 19.4545C57.4521 16.7315 58.7816 15.1783 60.8079 15.1783C62.3228 15.1783 63.4158 16.054 63.6268 17.4922H66.4265ZM70.6676 26L71.6392 23.0149H76.3629L77.3345 26H80.3004L75.7876 12.9091H72.2209L67.7017 26H70.6676ZM72.3423 20.8544L73.9531 15.9006H74.0554L75.6662 20.8544H72.3423ZM92.8256 12.9091H90.0707V21.142H89.9556L84.305 12.9091H81.8761V26H84.6438V17.7607H84.7397L90.435 26H92.8256V12.9091ZM107.142 19.4545C107.142 15.1719 104.483 12.7301 101.012 12.7301C97.5222 12.7301 94.8823 15.1719 94.8823 19.4545C94.8823 23.718 97.5222 26.179 101.012 26.179C104.483 26.179 107.142 23.7372 107.142 19.4545ZM104.336 19.4545C104.336 22.2287 103.019 23.7308 101.012 23.7308C98.9988 23.7308 97.6884 22.2287 97.6884 19.4545C97.6884 16.6804 98.9988 15.1783 101.012 15.1783C103.019 15.1783 104.336 16.6804 104.336 19.4545Z" fill="white"/>
<line x1="175.589" y1="37.2852" x2="150.589" y2="1.2852" stroke="black"/>
<line x1="114.457" y1="0.796931" x2="130.457" y2="36.7969" stroke="black"/>
<path d="M116 1H212V37H127.143L116 1Z" fill="#E72525"/>
<path d="M131.761 27H133.381V25.3239H133.58C133.949 25.9205 134.659 27.2273 136.761 27.2273C139.489 27.2273 141.392 25.0398 141.392 21.5739C141.392 18.1364 139.489 15.9489 136.733 15.9489C134.602 15.9489 133.949 17.2557 133.58 17.8239H133.438V12.4545H131.761V27ZM133.409 21.5455C133.409 19.1023 134.489 17.4545 136.534 17.4545C138.665 17.4545 139.716 19.2443 139.716 21.5455C139.716 23.875 138.636 25.7216 136.534 25.7216C134.517 25.7216 133.409 24.017 133.409 21.5455ZM148.53 27.2273C150.746 27.2273 152.365 26.1193 152.876 24.4716L151.257 24.017C150.831 25.1534 149.844 25.7216 148.53 25.7216C146.562 25.7216 145.206 24.4503 145.128 22.1136H153.047V21.4034C153.047 17.3409 150.632 15.9489 148.359 15.9489C145.405 15.9489 143.445 18.2784 143.445 21.6307C143.445 24.983 145.376 27.2273 148.53 27.2273ZM145.128 20.6648C145.241 18.9673 146.442 17.4545 148.359 17.4545C150.178 17.4545 151.342 18.8182 151.342 20.6648H145.128ZM160.341 16.0909H158.011V13.4773H156.335V16.0909H154.688V17.5114H156.335V24.3295C156.335 26.233 157.869 27.142 159.29 27.142C159.915 27.142 160.312 27.0284 160.54 26.9432L160.199 25.4375C160.057 25.4659 159.83 25.5227 159.46 25.5227C158.722 25.5227 158.011 25.2955 158.011 23.875V17.5114H160.341V16.0909ZM167.607 16.0909H165.277V13.4773H163.601V16.0909H161.953V17.5114H163.601V24.3295C163.601 26.233 165.135 27.142 166.555 27.142C167.18 27.142 167.578 27.0284 167.805 26.9432L167.464 25.4375C167.322 25.4659 167.095 25.5227 166.726 25.5227C165.987 25.5227 165.277 25.2955 165.277 23.875V17.5114H167.607V16.0909ZM170.128 27H171.804V16.0909H170.128V27ZM170.98 14.2727C171.634 14.2727 172.173 13.7614 172.173 13.1364C172.173 12.5114 171.634 12 170.98 12C170.327 12 169.787 12.5114 169.787 13.1364C169.787 13.7614 170.327 14.2727 170.98 14.2727ZM176.55 20.4375C176.55 18.5341 177.729 17.4545 179.334 17.4545C180.89 17.4545 181.834 18.4702 181.834 20.1818V27H183.51V20.0682C183.51 17.2841 182.026 15.9489 179.817 15.9489C178.169 15.9489 177.147 16.6875 176.635 17.7955H176.493V16.0909H174.874V27H176.55V20.4375ZM190.977 31.3182C193.59 31.3182 195.692 30.125 195.692 27.3125V16.0909H194.073V17.8239H193.903C193.533 17.2557 192.852 15.9489 190.721 15.9489C187.965 15.9489 186.062 18.1364 186.062 21.4886C186.062 24.8977 188.05 26.8295 190.692 26.8295C192.823 26.8295 193.505 25.5795 193.874 24.983H194.016V27.1989C194.016 29.017 192.738 29.8409 190.977 29.8409C188.995 29.8409 188.299 28.7969 187.852 28.1932L186.516 29.1307C187.198 30.2741 188.54 31.3182 190.977 31.3182ZM190.92 25.3239C188.817 25.3239 187.738 23.733 187.738 21.4602C187.738 19.2443 188.789 17.4545 190.92 17.4545C192.965 17.4545 194.045 19.1023 194.045 21.4602C194.045 23.875 192.937 25.3239 190.92 25.3239Z" fill="white"/>
</svg>
