<svg width="212" height="41" viewBox="0 0 212 41" fill="none" xmlns="http://www.w3.org/2000/svg">
<rect y="1" width="212" height="39.2727" fill="black"/>
<path d="M20.5028 13.5455H17.4283L21.9474 26.6364H25.5142L30.027 13.5455H26.9588L23.7884 23.4915H23.6669L20.5028 13.5455ZM43.1227 20.0909C43.1227 15.8082 40.4636 13.3665 36.9927 13.3665C33.5027 13.3665 30.8627 15.8082 30.8627 20.0909C30.8627 24.3544 33.5027 26.8153 36.9927 26.8153C40.4636 26.8153 43.1227 24.3736 43.1227 20.0909ZM40.3166 20.0909C40.3166 22.8651 38.9998 24.3672 36.9927 24.3672C34.9792 24.3672 33.6689 22.8651 33.6689 20.0909C33.6689 17.3168 34.9792 15.8146 36.9927 15.8146C38.9998 15.8146 40.3166 17.3168 40.3166 20.0909ZM45.1729 26.6364H53.5529V24.3544H47.9407V13.5455H45.1729V26.6364ZM66.4265 18.1286C66.0621 15.1051 63.7738 13.3665 60.744 13.3665C57.2859 13.3665 54.646 15.8082 54.646 20.0909C54.646 24.3608 57.2411 26.8153 60.744 26.8153C64.0998 26.8153 66.1261 24.5845 66.4265 22.1747L63.6268 22.1619C63.3647 23.5618 62.2653 24.3672 60.7887 24.3672C58.8008 24.3672 57.4521 22.8906 57.4521 20.0909C57.4521 17.3679 58.7816 15.8146 60.8079 15.8146C62.3228 15.8146 63.4158 16.6903 63.6268 18.1286H66.4265ZM70.6676 26.6364L71.6392 23.6513H76.3629L77.3345 26.6364H80.3004L75.7876 13.5455H72.2209L67.7017 26.6364H70.6676ZM72.3423 21.4908L73.9531 16.5369H74.0554L75.6662 21.4908H72.3423ZM92.8256 13.5455H90.0707V21.7784H89.9556L84.305 13.5455H81.8761V26.6364H84.6438V18.397H84.7397L90.435 26.6364H92.8256V13.5455ZM107.142 20.0909C107.142 15.8082 104.483 13.3665 101.012 13.3665C97.5222 13.3665 94.8823 15.8082 94.8823 20.0909C94.8823 24.3544 97.5222 26.8153 101.012 26.8153C104.483 26.8153 107.142 24.3736 107.142 20.0909ZM104.336 20.0909C104.336 22.8651 103.019 24.3672 101.012 24.3672C98.9988 24.3672 97.6884 22.8651 97.6884 20.0909C97.6884 17.3168 98.9988 15.8146 101.012 15.8146C103.019 15.8146 104.336 17.3168 104.336 20.0909Z" fill="white"/>
<line y1="-0.5" x2="46.5548" y2="-0.5" transform="matrix(-0.537002 -0.843581 0.797092 -0.603858 176 40.2727)" stroke="black"/>
<line y1="-0.5" x2="42.4069" y2="-0.5" transform="matrix(0.377297 0.926092 -0.899814 0.436274 114 1)" stroke="black"/>
<path d="M116 1H212V40.2727H127.143L116 1Z" fill="#E72525"/>
<path d="M135.966 28.2273C138.381 28.2273 139.972 26.75 140.256 24.8182H138.58C138.267 26.0114 137.273 26.7216 135.966 26.7216C133.977 26.7216 132.699 25.0739 132.699 22.5455C132.699 20.0739 134.006 18.4545 135.966 18.4545C137.443 18.4545 138.324 19.3636 138.58 20.358H140.256C139.972 18.3125 138.239 16.9489 135.938 16.9489C132.983 16.9489 131.023 19.2784 131.023 22.6023C131.023 25.8693 132.898 28.2273 135.966 28.2273ZM144.382 13.4545H142.706V28H144.382V13.4545ZM154.327 23.5398C154.327 25.5852 152.765 26.5227 151.515 26.5227C150.123 26.5227 149.128 25.5 149.128 23.9091V17.0909H147.452V24.0227C147.452 26.8068 148.929 28.142 150.975 28.142C152.623 28.142 153.702 27.2614 154.213 26.1534H154.327V28H156.003V17.0909H154.327V23.5398ZM159.3 28H160.92V26.3239H161.119C161.488 26.9205 162.198 28.2273 164.3 28.2273C167.028 28.2273 168.931 26.0398 168.931 22.5739C168.931 19.1364 167.028 16.9489 164.272 16.9489C162.141 16.9489 161.488 18.2557 161.119 18.8239H160.977V13.4545H159.3V28ZM160.948 22.5455C160.948 20.1023 162.028 18.4545 164.073 18.4545C166.204 18.4545 167.255 20.2443 167.255 22.5455C167.255 24.875 166.175 26.7216 164.073 26.7216C162.056 26.7216 160.948 25.017 160.948 22.5455Z" fill="white"/>
</svg>
