<svg width="212" height="41" viewBox="0 0 212 41" fill="none" xmlns="http://www.w3.org/2000/svg">
<rect y="1" width="212" height="39.2727" fill="black"/>
<path d="M20.5028 13.5455H17.4283L21.9474 26.6364H25.5142L30.027 13.5455H26.9588L23.7884 23.4915H23.6669L20.5028 13.5455ZM43.1227 20.0909C43.1227 15.8082 40.4636 13.3665 36.9927 13.3665C33.5027 13.3665 30.8627 15.8082 30.8627 20.0909C30.8627 24.3544 33.5027 26.8153 36.9927 26.8153C40.4636 26.8153 43.1227 24.3736 43.1227 20.0909ZM40.3166 20.0909C40.3166 22.8651 38.9998 24.3672 36.9927 24.3672C34.9792 24.3672 33.6689 22.8651 33.6689 20.0909C33.6689 17.3168 34.9792 15.8146 36.9927 15.8146C38.9998 15.8146 40.3166 17.3168 40.3166 20.0909ZM45.1729 26.6364H53.5529V24.3544H47.9407V13.5455H45.1729V26.6364ZM66.4265 18.1286C66.0621 15.1051 63.7738 13.3665 60.744 13.3665C57.2859 13.3665 54.646 15.8082 54.646 20.0909C54.646 24.3608 57.2411 26.8153 60.744 26.8153C64.0998 26.8153 66.1261 24.5845 66.4265 22.1747L63.6268 22.1619C63.3647 23.5618 62.2653 24.3672 60.7887 24.3672C58.8008 24.3672 57.4521 22.8906 57.4521 20.0909C57.4521 17.3679 58.7816 15.8146 60.8079 15.8146C62.3228 15.8146 63.4158 16.6903 63.6268 18.1286H66.4265ZM70.6676 26.6364L71.6392 23.6513H76.3629L77.3345 26.6364H80.3004L75.7876 13.5455H72.2209L67.7017 26.6364H70.6676ZM72.3423 21.4908L73.9531 16.5369H74.0554L75.6662 21.4908H72.3423ZM92.8256 13.5455H90.0707V21.7784H89.9556L84.305 13.5455H81.8761V26.6364H84.6438V18.397H84.7397L90.435 26.6364H92.8256V13.5455ZM107.142 20.0909C107.142 15.8082 104.483 13.3665 101.012 13.3665C97.5222 13.3665 94.8823 15.8082 94.8823 20.0909C94.8823 24.3544 97.5222 26.8153 101.012 26.8153C104.483 26.8153 107.142 24.3736 107.142 20.0909ZM104.336 20.0909C104.336 22.8651 103.019 24.3672 101.012 24.3672C98.9988 24.3672 97.6884 22.8651 97.6884 20.0909C97.6884 17.3168 98.9988 15.8146 101.012 15.8146C103.019 15.8146 104.336 17.3168 104.336 20.0909Z" fill="white"/>
<line y1="-0.5" x2="46.5548" y2="-0.5" transform="matrix(-0.537002 -0.843581 0.797092 -0.603858 176 40.2727)" stroke="black"/>
<line y1="-0.5" x2="42.4069" y2="-0.5" transform="matrix(0.377297 0.926092 -0.899814 0.436274 114 1)" stroke="black"/>
<path d="M116 1H212V40.2727H127.143L116 1Z" fill="#DEA14A"/>
<path d="M116 1H212V40.2727H127.143L116 1Z" fill="url(#paint0_linear)"/>
<path d="M116 1H212V40.2727H127.143L116 1Z" fill="url(#paint1_linear)"/>
<path d="M135.966 28.2273C138.381 28.2273 139.972 26.75 140.256 24.8182H138.58C138.267 26.0114 137.273 26.7216 135.966 26.7216C133.977 26.7216 132.699 25.0739 132.699 22.5455C132.699 20.0739 134.006 18.4545 135.966 18.4545C137.443 18.4545 138.324 19.3636 138.58 20.358H140.256C139.972 18.3125 138.239 16.9489 135.938 16.9489C132.983 16.9489 131.023 19.2784 131.023 22.6023C131.023 25.8693 132.898 28.2273 135.966 28.2273ZM145.916 28.2557C147.82 28.2557 148.814 27.233 149.155 26.5227H149.24V28H150.916V20.8125C150.916 17.3466 148.274 16.9489 146.882 16.9489C145.234 16.9489 143.359 17.517 142.507 19.5057L144.098 20.0739C144.467 19.2784 145.341 18.4261 146.939 18.4261C148.48 18.4261 149.24 19.2429 149.24 20.642V20.6989C149.24 21.5085 148.416 21.4375 146.428 21.6932C144.403 21.956 142.195 22.4034 142.195 24.9034C142.195 27.0341 143.842 28.2557 145.916 28.2557ZM146.172 26.75C144.837 26.75 143.871 26.1534 143.871 24.9886C143.871 23.7102 145.036 23.3125 146.342 23.142C147.053 23.0568 148.956 22.858 149.24 22.517V24.0511C149.24 25.4148 148.161 26.75 146.172 26.75ZM161.703 19.5341C161.177 17.9858 159.998 16.9489 157.839 16.9489C155.538 16.9489 153.833 18.2557 153.833 20.1023C153.833 21.608 154.728 22.6165 156.731 23.0852L158.549 23.5114C159.65 23.767 160.169 24.2926 160.169 25.0455C160.169 25.983 159.174 26.75 157.612 26.75C156.241 26.75 155.382 26.1605 155.083 24.9886L153.493 25.3864C153.883 27.2401 155.41 28.2273 157.64 28.2273C160.176 28.2273 161.902 26.8423 161.902 24.9602C161.902 23.4403 160.95 22.4815 159.004 22.0057L157.385 21.608C156.092 21.2884 155.51 20.8551 155.51 20.017C155.51 19.0795 156.504 18.3977 157.839 18.3977C159.302 18.3977 159.906 19.2074 160.197 19.9602L161.703 19.5341ZM164.425 28H166.101V17.0909H164.425V28ZM165.277 15.2727C165.93 15.2727 166.47 14.7614 166.47 14.1364C166.47 13.5114 165.93 13 165.277 13C164.624 13 164.084 13.5114 164.084 14.1364C164.084 14.7614 164.624 15.2727 165.277 15.2727ZM170.847 21.4375C170.847 19.5341 172.026 18.4545 173.631 18.4545C175.186 18.4545 176.131 19.4702 176.131 21.1818V28H177.807V21.0682C177.807 18.2841 176.323 16.9489 174.114 16.9489C172.466 16.9489 171.444 17.6875 170.932 18.7955H170.79V17.0909H169.171V28H170.847V21.4375ZM185.302 28.2273C188.256 28.2273 190.245 25.983 190.245 22.6023C190.245 19.1932 188.256 16.9489 185.302 16.9489C182.347 16.9489 180.359 19.1932 180.359 22.6023C180.359 25.983 182.347 28.2273 185.302 28.2273ZM185.302 26.7216C183.058 26.7216 182.035 24.7898 182.035 22.6023C182.035 20.4148 183.058 18.4545 185.302 18.4545C187.546 18.4545 188.569 20.4148 188.569 22.6023C188.569 24.7898 187.546 26.7216 185.302 26.7216Z" fill="black"/>
<defs>
<linearGradient id="paint0_linear" x1="164" y1="1" x2="164" y2="40.2727" gradientUnits="userSpaceOnUse">
<stop stop-color="#F2E1C5"/>
<stop offset="1" stop-color="white" stop-opacity="0"/>
</linearGradient>
<linearGradient id="paint1_linear" x1="164" y1="1" x2="164" y2="40.2727" gradientUnits="userSpaceOnUse">
<stop stop-color="#B35E24"/>
<stop offset="1" stop-color="white" stop-opacity="0"/>
</linearGradient>
</defs>
</svg>
